# xmcd
#
# Track frame offsets:
#	150
#	12657
#	29330
#	39159
#	57574
#	72364
#	89463
#	104265
#	125106
#	137675
#	148600
#	165039
#	174099
#
# Disc length: 2560 seconds
#
# Revision: 0
# Processed by: cddbd v1.5.2PL0 Copyright (c) Steve Scherf et al.
# Submitted via: audiograbber 1.83.01
#
DISCID=ad09fe0d
DTITLE=Ben Coulter - A man, a guitar, and a story
DYEAR=2005
DGENRE=Country
TTITLE0=When Haggard was King
TTITLE1=I wish you were mine
TTITLE2=railroad blues
TTITLE3=old school
TTITLE4=that's what i'd do for you
TTITLE5=closer to you
TTITLE6=i've got the Lord on my side
TTITLE7=lonely, chaisin' a dream
TTITLE8=old lovers are hard to forget
TTITLE9=Louisiana trainride
TTITLE10=it's so hard bein' alone
TTITLE11=first big record i'm make i'm goin' home
TTITLE12=the woman for me was you
EXTD=
EXTT0=
EXTT1=
EXTT2=
EXTT3=
EXTT4=
EXTT5=
EXTT6=
EXTT7=
EXTT8=
EXTT9=
EXTT10=
EXTT11=
EXTT12=
PLAYORDER=
